<svg xmlns="http://www.w3.org/2000/svg" xmlns:xlink="http://www.w3.org/1999/xlink" width="62" height="62" viewBox="0 0 62 62">
  <defs>
    <clipPath id="clip-path">
      <rect id="Rectángulo_401" data-name="Rectángulo 401" width="27.646" height="39.724" fill="#fff"/>
    </clipPath>
  </defs>
  <g id="Grupo_454" data-name="Grupo 454" transform="translate(-261 -821)">
    <circle id="Elipse_84" data-name="Elipse 84" cx="31" cy="31" r="31" transform="translate(261 821)" fill="#006ba8"/>
    <g id="Grupo_161" data-name="Grupo 161" transform="translate(278.39 832.341)">
      <g id="Grupo_143" data-name="Grupo 143" clip-path="url(#clip-path)">
        <path id="Trazado_271" data-name="Trazado 271" d="M16.621,0c.641.143,1.3.236,1.919.436A8.918,8.918,0,0,1,24.751,8.8c.024,1.267,0,2.534.01,3.8a7.465,7.465,0,0,0,1.228,4.139,9.546,9.546,0,0,1,1.647,5.827,9.252,9.252,0,0,1-1.6,4.791.666.666,0,1,1-1.1-.735,8.044,8.044,0,0,0-.087-9.186,8.9,8.9,0,0,1-1.418-4.764c-.017-1.512.036-3.029-.072-4.535a7.473,7.473,0,0,0-6.6-6.726,24.942,24.942,0,0,0-6.3.069A7.522,7.522,0,0,0,4.226,8.871c-.019,1.176-.013,2.353,0,3.53A9.293,9.293,0,0,1,2.7,17.6,8.069,8.069,0,0,0,4.545,28.559a.585.585,0,0,0,.555.118,16.023,16.023,0,0,1,2.208-.349,2.831,2.831,0,0,0,2.711-2.555.485.485,0,0,0-.282-.551,8.683,8.683,0,0,1-4.754-7.841c-.034-1.486-.007-2.974-.005-4.461,0-.541.226-.824.651-.827s.669.286.67.814c0,1.461,0,2.922,0,4.383A7.528,7.528,0,0,0,14.422,24.9a7.441,7.441,0,0,0,6.837-6.514c.154-1.624.026-3.275.026-4.95A3.786,3.786,0,0,1,17.88,10.5c-.149.085-.278.155-.4.232A22.336,22.336,0,0,1,8.9,13.82c-.484.068-.778-.129-.844-.522s.178-.709.667-.781a21.377,21.377,0,0,0,9.2-3.654c.547-.38,1.016-.113,1.122.55a4.959,4.959,0,0,0,.408,1.439A2.266,2.266,0,0,0,21.689,12.1c.834-.014.988.141.988.984,0,1.513.015,3.026-.006,4.538a8.852,8.852,0,0,1-7.657,8.533,9.011,9.011,0,0,1-3.421-.206c-.072-.019-.147-.027-.256-.047a4.2,4.2,0,0,1-1.521,2.838L11,29.662c.828.641,1.663,1.273,2.479,1.928a.448.448,0,0,0,.683.013c.613-.515,1.259-.991,1.895-1.479.422-.323.8-.311,1.055.024s.161.707-.252,1.028q-1.256.975-2.515,1.946a.694.694,0,0,1-1.041,0c-1.474-1.137-2.948-2.273-4.413-3.421a.8.8,0,0,0-.735-.172c-.529.1-1.079.1-1.615.17a5.485,5.485,0,0,0-4.8,5.457c-.013,1.28,0,2.56-.006,3.84a.656.656,0,0,1-.792.711.612.612,0,0,1-.515-.6c.022-1.717-.056-3.448.135-5.148.213-1.893,1.172-3.186,2.986-4.565a2.656,2.656,0,0,1-.322-.208A9.357,9.357,0,0,1,1.473,17.073a8.708,8.708,0,0,0,1.434-4.98c-.026-1.356-.038-2.718.062-4.069A8.906,8.906,0,0,1,10.2.153c.278-.047.556-.1.833-.153Z" transform="translate(0)" fill="#fff"/>
        <path id="Trazado_272" data-name="Trazado 272" d="M172.7,267.544c0,.685.005,1.37,0,2.055,0,.483-.271.788-.669.786s-.65-.3-.651-.793c0-1.215,0-2.43,0-3.645a5.518,5.518,0,0,0-5.562-5.646,3.98,3.98,0,0,1-3.343-1.8.694.694,0,0,1,.1-1.053c.329-.218.7-.113.987.294a2.784,2.784,0,0,0,2.37,1.241,6.832,6.832,0,0,1,6.773,6.776c.009.595,0,1.189,0,1.784" transform="translate(-145.461 -230.665)" fill="#fff"/>
      </g>
    </g>
  </g>
</svg>
