<svg xmlns="http://www.w3.org/2000/svg" xmlns:xlink="http://www.w3.org/1999/xlink" width="62" height="62" viewBox="0 0 62 62">
  <defs>
    <clipPath id="clip-path">
      <rect id="Rectángulo_427" data-name="Rectángulo 427" width="38.998" height="40.738" fill="#fff"/>
    </clipPath>
  </defs>
  <g id="Grupo_452" data-name="Grupo 452" transform="translate(-1261 -542)">
    <circle id="Elipse_82" data-name="Elipse 82" cx="31" cy="31" r="31" transform="translate(1261 542)" fill="#006ba8"/>
    <g id="Grupo_164" data-name="Grupo 164" transform="translate(1273.098 553.341)">
      <g id="Grupo_164-2" data-name="Grupo 164" clip-path="url(#clip-path)">
        <path id="Trazado_358" data-name="Trazado 358" d="M1.349,40.392H0V39.92c0-3.984.007-7.968,0-11.952a8.089,8.089,0,0,1,.761-3.5c.835-1.789,1.667-3.58,2.476-5.38a3.73,3.73,0,0,1,1.931-2.008c.116-.051.205-.3.205-.462.011-3.942-.008-7.884.016-11.825A4.5,4.5,0,0,1,8.193.436,4.831,4.831,0,0,1,10.1.025C15.013-.008,19.929,0,24.844.01a4.693,4.693,0,0,1,4.738,4.844q.008,11.636,0,23.272a.769.769,0,0,0,.372.8,5.35,5.35,0,0,1,.7.556,2.748,2.748,0,0,1,3.946.751,2.731,2.731,0,0,1,2.33-.521,2.632,2.632,0,0,1,2.054,2.465c.027,2.721.009,5.442.009,8.2h-1.34v-.432c0-2.511,0-5.022,0-7.533a1.34,1.34,0,0,0-1.828-1.333,1.291,1.291,0,0,0-.856,1.235c-.014.42,0,.842-.005,1.262a.689.689,0,0,1-.655.771c-.407.01-.681-.295-.686-.781-.006-.617,0-1.234,0-1.852a1.344,1.344,0,1,0-2.686-.009c-.008.617,0,1.234,0,1.852,0,.492-.271.795-.678.79s-.661-.307-.663-.8c0-.814,0-1.627,0-2.441a1.348,1.348,0,1,0-2.687,0c0,.8,0,1.6,0,2.4,0,.535-.244.843-.66.851s-.683-.309-.683-.87c0-3.044,0-6.088,0-9.132a1.342,1.342,0,0,0-2-1.265,1.378,1.378,0,0,0-.687,1.3q.009,5.366,0,10.731c0,.168,0,.337,0,.5a.665.665,0,0,1-.513.726.658.658,0,0,1-.772-.366c-.449-.776-.889-1.557-1.349-2.327a1.342,1.342,0,0,0-2.451.317,1.432,1.432,0,0,0,.2,1.164c.881,1.513,1.752,3.032,2.625,4.55.068.119.131.241.213.394l-1.128.658c-.071-.107-.143-.2-.2-.309q-1.314-2.274-2.626-4.549a.267.267,0,0,1-.042-.073c-.142-.8-.692-.828-1.355-.8-.991.049-1.986.013-3.015.013.591,1.762.2,3.552.357,5.35H11.453c-.006-.127-.019-.262-.019-.4,0-1.01-.008-2.02,0-3.03a3.663,3.663,0,0,0-.555-2c-.418-.68-.809-1.378-1.242-2.048a.961.961,0,0,1-.017-1.128c.952-1.618,1.877-3.251,2.821-4.873a1.461,1.461,0,0,0,.206-1.2,1.255,1.255,0,0,0-1.068-.946,1.275,1.275,0,0,0-1.384.661c-.63,1.076-1.247,2.159-1.869,3.239Q7.362,30.329,6.4,32c-.069.119-.144.235-.238.388l-1.178-.682a1.967,1.967,0,0,0,.41-1.6c-.012-3.689-.006-7.379-.006-11.068v-.448l-.122-.07a4.77,4.77,0,0,0-.637.826C3.662,21.389,2.684,23.422,1.81,25.5a6.313,6.313,0,0,0-.442,2.33c-.043,4.011-.02,8.023-.02,12.035v.528M6.727,28.554l.082.022c.086-.143.173-.284.257-.428.651-1.128,1.293-2.262,1.955-3.383a2.688,2.688,0,1,1,4.655,2.689c-.863,1.539-1.763,3.058-2.643,4.587-.215.374.466,1.632.893,1.634q2.163.011,4.327,0a.372.372,0,0,0,.279-.115c.239-.4.455-.809.686-1.228-.365,0-.742.009-1.118,0a2.017,2.017,0,0,1,0-4.033c.924-.016,1.849-.023,2.772,0a2.01,2.01,0,0,1,1.451,3.344c-.065.077-.132.154-.144.168l1.336,1.184v-.422q0-4.1,0-8.205a2.691,2.691,0,1,1,5.376.014c0,1.29,0,2.581,0,3.871,0,.116.012.233.018.331l1.326-.355v-.414q0-11.4,0-22.807a3.378,3.378,0,0,0-3.634-3.653H10.366A3.379,3.379,0,0,0,6.727,5q0,11.572,0,23.143Zm10.8,1.085c-.448,0-.9-.009-1.344,0a.671.671,0,1,0,0,1.339q1.3.016,2.6,0a.671.671,0,1,0,0-1.339c-.42-.012-.84,0-1.26,0" transform="translate(0 0)" fill="#fff"/>
        <rect id="Rectángulo_425" data-name="Rectángulo 425" width="5.325" height="1.297" transform="translate(14.828 2.729)" fill="#fff"/>
        <rect id="Rectángulo_426" data-name="Rectángulo 426" width="1.287" height="1.31" transform="translate(12.13 2.722)" fill="#fff"/>
      </g>
    </g>
  </g>
</svg>
