<svg xmlns="http://www.w3.org/2000/svg" xmlns:xlink="http://www.w3.org/1999/xlink" width="62" height="62" viewBox="0 0 62 62">
  <defs>
    <clipPath id="clip-path">
      <rect id="Rectángulo_422" data-name="Rectángulo 422" width="44.985" height="39.008" transform="translate(0 0)" fill="#fff"/>
    </clipPath>
  </defs>
  <g id="Grupo_453" data-name="Grupo 453" transform="translate(-763 -821)">
    <circle id="Elipse_83" data-name="Elipse 83" cx="31" cy="31" r="31" transform="translate(763 821)" fill="#006ba8"/>
    <g id="Grupo_162" data-name="Grupo 162" transform="translate(773.585 832.874)">
      <g id="Grupo_162-2" data-name="Grupo 162" transform="translate(0 0)" clip-path="url(#clip-path)">
        <path id="Trazado_342" data-name="Trazado 342" d="M44.985,10.015a19.37,19.37,0,0,1-.752,2.507,9.464,9.464,0,0,1-4.869,4.723.613.613,0,0,0-.436.715A19.5,19.5,0,0,1,.1,21.551c-.031-.273-.067-.545-.1-.817V18.186c.142-.908.251-1.823.431-2.724a18.748,18.748,0,0,1,3-7.006c.368-.535.7-.665,1.072-.419s.378.635.025,1.148a17.6,17.6,0,0,0-2.967,7.385A17.783,17.783,0,0,0,5.055,30.512a17.785,17.785,0,0,0,10.742,6.8A18.2,18.2,0,0,0,37.252,23.464a17.3,17.3,0,0,0,.386-5.233c-.007-.086-.023-.171-.032-.231a20.056,20.056,0,0,1-2.647.353c-1.192.007-2.384-.161-3.577-.229a1.1,1.1,0,0,0-.669.162c-.822.61-1.619,1.255-2.42,1.894a.928.928,0,0,1-1.048.216.9.9,0,0,1-.472-1c.092-.9.183-1.806.312-2.7a.6.6,0,0,0-.278-.651,8.519,8.519,0,0,1-3.426-5.193,8.132,8.132,0,0,1,2.691-7.844l.335-.32a16.446,16.446,0,0,0-4.254-1.179,18.142,18.142,0,0,0-10.278,1.48A17.831,17.831,0,0,0,7.03,6.275c-.138.131-.27.268-.41.4-.361.33-.724.352-1.007.066a.657.657,0,0,1,.091-1c.658-.6,1.3-1.226,2.012-1.765A19.074,19.074,0,0,1,17.937.07a19.141,19.141,0,0,1,9.417,1.586.7.7,0,0,0,.685-.069,12.375,12.375,0,0,1,12.252.071c.077.042.152.087.227.134.5.312.636.671.394,1.039-.225.342-.6.363-1.079.088A11,11,0,0,0,29.2,2.469a7.708,7.708,0,0,0-4.351,4.748,6.647,6.647,0,0,0,1.887,7.023,8.847,8.847,0,0,0,1.29,1.051.9.9,0,0,1,.441.962c-.088.608-.153,1.219-.226,1.829-.015.124-.019.248-.034.46.721-.558,1.388-1.052,2.029-1.578a1.115,1.115,0,0,1,1.055-.224,10.764,10.764,0,0,0,9.433-1.864,6.974,6.974,0,0,0,2.935-5.854,6.65,6.65,0,0,0-1.348-3.83c-.086-.119-.18-.231-.264-.351a.675.675,0,0,1,.061-.947.66.66,0,0,1,.967.133A8.219,8.219,0,0,1,44.81,7.581c.061.284.117.568.175.853Z" transform="translate(0 0)" fill="#fff"/>
        <path id="Trazado_343" data-name="Trazado 343" d="M87.3,53.434c-.068.742-.108,1.488-.212,2.225a2.593,2.593,0,0,1-2.032,2.276,1.031,1.031,0,0,0-.793.866,6.386,6.386,0,0,0,.067,3.17A8.776,8.776,0,0,0,86.088,65.8a5.522,5.522,0,0,0,.46.47,1.087,1.087,0,0,0,1.068.309,2.706,2.706,0,0,1,2.916.969,25.494,25.494,0,0,1,2.227,3.3,2.176,2.176,0,0,1-.991,3.2,6.827,6.827,0,0,1-5.9.31,10.635,10.635,0,0,1-5.382-4.644,20.725,20.725,0,0,1-3.258-11.923,8.708,8.708,0,0,1,3.112-6.761,6.351,6.351,0,0,1,4.13-1.484,2.546,2.546,0,0,1,2.75,2.574c.033.437.005.878.005,1.317Zm-1.339.038-.04,0c0-.424.028-.851-.006-1.272-.077-.944-.5-1.348-1.444-1.338a5.261,5.261,0,0,0-3.953,1.8A7.775,7.775,0,0,0,78.549,57.8a19.524,19.524,0,0,0,3.036,11.174,9.443,9.443,0,0,0,4.777,4.153A5.626,5.626,0,0,0,90.922,73c.9-.436,1.088-.913.587-1.757-.565-.953-1.217-1.858-1.874-2.751a1.625,1.625,0,0,0-1.914-.61,1.687,1.687,0,0,1-1.576-.294,6.972,6.972,0,0,1-1.183-1.1,10.4,10.4,0,0,1-2.041-4.835,6.684,6.684,0,0,1,.184-3.551,1.892,1.892,0,0,1,1.481-1.4,1.465,1.465,0,0,0,1.242-1.446c.056-.6.087-1.2.129-1.794" transform="translate(-66.942 -42.946)" fill="#fff"/>
        <path id="Trazado_344" data-name="Trazado 344" d="M225.661,49.463c1.434,0,2.868,0,4.3,0,.517,0,.8.246.8.664s-.293.651-.815.651q-4.279,0-8.559,0c-.582,0-.936-.363-.8-.818a.7.7,0,0,1,.776-.5c1.434.007,2.868,0,4.3,0" transform="translate(-191.202 -42.877)" fill="#fff"/>
        <path id="Trazado_345" data-name="Trazado 345" d="M225.7,76.882q-2.062,0-4.124,0a1.873,1.873,0,0,1-.478-.041.547.547,0,0,1-.456-.648,1.272,1.272,0,0,1,.492-.585c.106-.081.311-.04.471-.04q4.124,0,8.248,0a2.544,2.544,0,0,1,.437.024.585.585,0,0,1,.527.6.594.594,0,0,1-.513.66,2.135,2.135,0,0,1-.436.028q-2.084,0-4.168,0" transform="translate(-191.259 -65.499)" fill="#fff"/>
      </g>
    </g>
  </g>
</svg>
