<svg xmlns="http://www.w3.org/2000/svg" xmlns:xlink="http://www.w3.org/1999/xlink" width="62" height="62" viewBox="0 0 62 62">
  <defs>
    <clipPath id="clip-path">
      <rect id="Rectángulo_429" data-name="Rectángulo 429" width="40.724" height="40.711" fill="#fff"/>
    </clipPath>
  </defs>
  <g id="Grupo_456" data-name="Grupo 456" transform="translate(-1261 -821)">
    <circle id="Elipse_85" data-name="Elipse 85" cx="31" cy="31" r="31" transform="translate(1261 821)" fill="#006ba8"/>
    <g id="Grupo_169" data-name="Grupo 169" transform="translate(1271.48 831.644)">
      <g id="Grupo_168" data-name="Grupo 168">
        <g id="Grupo_167" data-name="Grupo 167" clip-path="url(#clip-path)">
          <path id="Trazado_371" data-name="Trazado 371" d="M121.4,311.709a1.048,1.048,0,0,1-.644-1.112c.025-1.019.012-2.039.006-3.058a2.511,2.511,0,0,0-2.568-2.6q-5.065-.021-10.13,0a2.51,2.51,0,0,0-2.568,2.6c-.006,1.02-.018,2.039.006,3.058a1.047,1.047,0,0,1-.643,1.112h-.477a1.14,1.14,0,0,1-.585-1.152c.028-1.006,0-2.013.011-3.019a4.2,4.2,0,0,1,4.256-4.307q5.066-.053,10.132,0a4.2,4.2,0,0,1,4.256,4.307c.012,1.006-.018,2.013.011,3.019a1.144,1.144,0,0,1-.585,1.152Z" transform="translate(-92.771 -270.998)" fill="#fff"/>
          <path id="Trazado_372" data-name="Trazado 372" d="M0,17.991a1.542,1.542,0,0,0,.075-.18,2.538,2.538,0,0,1,2.5-1.942c1.073-.018,2.146-.009,3.22,0,.612,0,.98.336.977.857s-.372.844-.987.848c-1.02.007-2.04,0-3.061,0-.735,0-1.034.3-1.035,1.043q0,4.034,0,8.067c0,.75.315,1.057,1.066,1.066,1.7.021,1.261-.193,2.412,1.1.518.582,1.027,1.172,1.562,1.782.231-.308.441-.6.659-.877A.855.855,0,0,1,8.605,29.5a.842.842,0,0,1,.151,1.257q-.615.854-1.258,1.689a.833.833,0,0,1-1.389.049c-.831-.928-1.637-1.877-2.474-2.8a.82.82,0,0,0-.53-.238,3.741,3.741,0,0,1-1.74-.3A2.769,2.769,0,0,1,0,27.294Z" transform="translate(0 -14.173)" fill="#fff"/>
          <path id="Trazado_373" data-name="Trazado 373" d="M0,291.065c.059-.213.116-.427.179-.639a4.242,4.242,0,0,1,3.966-3.011c1.7-.022,3.392-.009,5.089-.005a.86.86,0,0,1,.943.853.851.851,0,0,1-.959.832c-1.564.005-3.127,0-4.691,0a2.6,2.6,0,0,0-2.836,2.841c0,.437,0,.875,0,1.312a.851.851,0,0,1-.616.908.85.85,0,0,1-.994-.466A.6.6,0,0,0,0,293.61v-2.544" transform="translate(0 -256.874)" fill="#fff"/>
          <path id="Trazado_374" data-name="Trazado 374" d="M95.827,6.774c0-1.364,0-2.729,0-4.093A2.542,2.542,0,0,1,98.491,0Q106,0,113.515,0a2.541,2.541,0,0,1,2.67,2.672q.006,4.113,0,8.225a2.552,2.552,0,0,1-2.673,2.676c-1.232.009-2.464.012-3.7-.005a.854.854,0,0,0-.747.326c-.725.861-1.476,1.7-2.219,2.546-.639.726-1.127.708-1.7-.057-.627-.837-1.262-1.669-1.878-2.514a.642.642,0,0,0-.59-.3c-1.365.013-2.729.009-4.094.005a2.568,2.568,0,0,1-2.76-2.75q0-2.027,0-4.053m10.233,7.993c.692-.791,1.371-1.532,2.007-2.309a1.5,1.5,0,0,1,1.3-.6c1.364.028,2.73.012,4.095.008.716,0,1.03-.3,1.031-1.008q.007-4.074,0-8.148c0-.7-.328-1.018-1.031-1.019q-7.454,0-14.908,0c-.719,0-1.036.324-1.036,1.053q0,4.034,0,8.069c0,.758.3,1.052,1.066,1.053,1.5,0,3,.019,4.492-.008a1.4,1.4,0,0,1,1.3.656c.525.758,1.1,1.48,1.682,2.252" transform="translate(-85.647 -0.001)" fill="#fff"/>
          <path id="Trazado_375" data-name="Trazado 375" d="M148.807,193.775a5.088,5.088,0,1,1,5.126-5.035,5.088,5.088,0,0,1-5.126,5.035m.036-8.464a3.387,3.387,0,1,0,3.4,3.372,3.394,3.394,0,0,0-3.4-3.372" transform="translate(-128.485 -164.097)" fill="#fff"/>
          <path id="Trazado_376" data-name="Trazado 376" d="M301.123,30.57c.672-.768,1.343-1.5,1.968-2.263a1.416,1.416,0,0,1,1.363-.622,3.908,3.908,0,0,0,.516,0c.916,0,1.194-.274,1.194-1.177q0-3.238,0-6.476c0-.5,0-1.007,0-1.51-.008-.709-.311-1.011-1.024-1.014-.967,0-1.934,0-2.9,0a3.2,3.2,0,0,1-.357-.009.834.834,0,0,1-.8-.867.8.8,0,0,1,.8-.818c1.218-.02,2.441-.062,3.654.021a2.468,2.468,0,0,1,2.314,2.564q.011,4.191,0,8.383a2.49,2.49,0,0,1-2.588,2.575,1.582,1.582,0,0,0-1.431.673c-.633.8-1.329,1.546-2.006,2.309a.877.877,0,0,1-1.544-.057c-.391-.518-.781-1.036-1.163-1.56a.849.849,0,0,1,.126-1.289.866.866,0,0,1,1.24.287c.208.272.412.548.639.849" transform="translate(-267.136 -14.111)" fill="#fff"/>
          <path id="Trazado_377" data-name="Trazado 377" d="M38.811,210.97a3.388,3.388,0,1,1-3.374-3.4,3.411,3.411,0,0,1,3.374,3.4m-3.4,1.68a1.687,1.687,0,1,0-1.684-1.7,1.693,1.693,0,0,0,1.684,1.7" transform="translate(-28.632 -185.518)" fill="#fff"/>
          <path id="Trazado_378" data-name="Trazado 378" d="M294.289,210.947a3.388,3.388,0,1,1-3.391-3.38,3.394,3.394,0,0,1,3.391,3.38m-3.4-1.67a1.687,1.687,0,1,0,1.713,1.67,1.695,1.695,0,0,0-1.713-1.67" transform="translate(-256.974 -185.52)" fill="#fff"/>
          <path id="Trazado_379" data-name="Trazado 379" d="M291.065,287.511a25.8,25.8,0,0,1,3.092.022,4.137,4.137,0,0,1,3.517,3.931c.024.622.016,1.245.007,1.868a.833.833,0,0,1-.826.882.821.821,0,0,1-.857-.885c-.011-.45,0-.9,0-1.351a2.594,2.594,0,0,0-2.83-2.847c-1.524,0-3.048,0-4.571,0a1.788,1.788,0,0,1-.548-.061.83.83,0,0,1-.529-.921.845.845,0,0,1,.845-.7c.9-.011,1.8,0,2.7,0,0,.023,0,.046,0,.069" transform="translate(-256.966 -256.907)" fill="#fff"/>
        </g>
      </g>
    </g>
  </g>
</svg>
