<svg xmlns="http://www.w3.org/2000/svg" xmlns:xlink="http://www.w3.org/1999/xlink" width="62" height="62" viewBox="0 0 62 62">
  <defs>
    <clipPath id="clip-path">
      <rect id="Rectángulo_321" data-name="Rectángulo 321" width="33.816" height="28.306" fill="#fff"/>
    </clipPath>
  </defs>
  <g id="Grupo_451" data-name="Grupo 451" transform="translate(-763 -542)">
    <circle id="Elipse_81" data-name="Elipse 81" cx="31" cy="31" r="31" transform="translate(763 542)" fill="#006ba8"/>
    <g id="Grupo_124" data-name="Grupo 124" transform="translate(777.366 559.39)">
      <g id="Grupo_124-2" data-name="Grupo 124" clip-path="url(#clip-path)">
        <path id="Trazado_243" data-name="Trazado 243" d="M0,2.129c.031-.091.067-.181.094-.274A2.511,2.511,0,0,1,2.479.009C3.5-.007,4.526,0,5.55,0H26.915c.121,0,3.772,0,3.892,0,.267.02.34.9.068.962C30.739,1,27.062.993,26.92.993q-12.086,0-24.172,0a1.756,1.756,0,0,0-1.176.34A1.362,1.362,0,0,0,1.01,2.342C.983,3.428,1,4.515,1,5.62H32.806c.006-.091.018-.186.018-.28,0-.9,0-1.805,0-2.708A1.541,1.541,0,0,0,31.192.995c-.506,0-1.013,0-1.519,0-.4,0-.409-.988.012-.989.561,0,1.123-.01,1.684.006a2.524,2.524,0,0,1,2.442,2.431c.007.209,0,.418,0,.627q0,10.022,0,20.045A2.535,2.535,0,0,1,31.8,25.732a2.637,2.637,0,0,1-.557.054c-1.4,0-2.8,0-4.194,0a1.3,1.3,0,0,1-.165-.008c-.27-.034-.305-.9-.046-.959a1.838,1.838,0,0,1,.394-.022c1.3,0,2.6,0,3.9,0a1.553,1.553,0,0,0,1.7-1.707q0-8.057,0-16.115V6.654H.991v.882c0,.87,0,4.386,0,5.256,0,.279-.82.581-.993.372V2.129" transform="translate(0 0)" fill="#fff"/>
        <path id="Trazado_244" data-name="Trazado 244" d="M0,137.584c.053-.052.1-.132.161-.15a.991.991,0,0,1,.516-.083c.131.045.229.24.3.389a.81.81,0,0,1,.012.326q0,5.118,0,10.236a1.551,1.551,0,0,0,1.688,1.714q4.144.005,8.288,0h.312c-.059-.169-.1-.3-.149-.428q-.971-2.61-1.943-5.22a.816.816,0,0,1,.413-1.157,1.022,1.022,0,0,1,.635,0q4.317,1.583,8.621,3.2a.759.759,0,0,1,.283,1.337c-.524.532-1.057,1.055-1.647,1.642a7.4,7.4,0,0,0,.616.53.729.729,0,0,0,.4.1c1.937.006,3.874,0,5.811.005.131,0,4.679,0,4.8.035.244.067.184.9-.067.941-.119.018-4.653.012-4.774.012H19.252c.049.1.084.175.121.248a.762.762,0,0,1-.108.92c-.358.388-.731.764-1.119,1.121a.8.8,0,0,1-1.18-.07c-.489-.476-.966-.964-1.449-1.446-.062-.061-.128-.118-.217-.2-.51.512-1.012,1.016-1.515,1.519-.592.591-1.168.47-1.461-.307-.186-.493-.386-.983-.547-1.484a.388.388,0,0,0-.45-.307c-2.73.009-5.46-.037-8.189.022A2.777,2.777,0,0,1,0,148.878V137.584m10.2,6.654,2.981,8.01a.465.465,0,0,0,.1-.044q.772-.768,1.543-1.537c.395-.393.594-.392.995.008.591.59,1.18,1.182,1.733,1.737l.846-.808c-.589-.585-1.182-1.171-1.773-1.76-.379-.379-.38-.6-.008-.97.535-.537,1.072-1.071,1.638-1.636l-8.054-3" transform="translate(0 -125.218)" fill="#fff"/>
        <path id="Trazado_245" data-name="Trazado 245" d="M50.341,137.19c.381-1.087.737-2.1,1.093-3.117a2.191,2.191,0,0,1,.119-.307.49.49,0,0,1,.911.346c-.06.233-.156.457-.236.685-.458,1.306-.919,2.61-1.372,3.918-.092.266-.2.5-.53.5s-.44-.235-.529-.5c-.359-1.06-.721-2.119-1.107-3.252-.133.361-.243.652-.347.946q-.421,1.179-.837,2.36c-.091.259-.226.455-.535.445-.293-.01-.411-.21-.494-.454q-.766-2.245-1.536-4.488c-.131-.385-.018-.669.287-.751s.518.059.641.414c.335.965.665,1.932,1,2.9.032.093.066.185.13.367.065-.162.1-.252.138-.344.351-.982.705-1.964,1.049-2.948.087-.25.213-.44.5-.444.3,0,.437.19.526.455.332.989.673,1.975,1.012,2.961.028.082.061.163.118.314" transform="translate(-40.927 -121.684)" fill="#fff"/>
        <path id="Trazado_246" data-name="Trazado 246" d="M150.826,137.212l1.062-2.968c.048-.134.1-.269.142-.4a.488.488,0,0,1,.479-.381.5.5,0,0,1,.5.393q.5,1.466,1,2.931c.038.111.078.221.147.415l.974-2.77c.062-.176.122-.353.188-.527.129-.342.367-.478.655-.382a.5.5,0,0,1,.277.7q-.7,2.022-1.416,4.041-.1.28-.2.56a.5.5,0,0,1-.98,0q-.518-1.528-1.042-3.055c-.025-.073-.054-.143-.106-.279-.062.151-.108.252-.146.357q-.515,1.442-1.026,2.886c-.093.265-.214.49-.543.479-.309-.01-.418-.226-.506-.482-.507-1.486-1.021-2.969-1.53-4.454-.121-.352-.052-.594.19-.721.3-.157.6-.009.737.372.34.974.673,1.951,1.009,2.927.032.093.066.185.128.359" transform="translate(-135.583 -121.684)" fill="#fff"/>
        <path id="Trazado_247" data-name="Trazado 247" d="M254.673,135.491c-.378,1.062-.736,2.071-1.1,3.079-.106.295-.162.647-.592.641-.409-.006-.465-.342-.564-.63q-.73-2.118-1.457-4.237c-.018-.052-.035-.1-.051-.157a.5.5,0,0,1,.271-.656.491.491,0,0,1,.659.327c.213.589.409,1.183.613,1.775.171.5.342.993.538,1.562.061-.145.1-.222.127-.3.348-.972.7-1.942,1.04-2.917.1-.276.2-.523.549-.515s.439.265.531.538c.35,1.041.709,2.078,1.088,3.184.065-.163.112-.268.15-.376.335-.953.67-1.906,1-2.861.085-.247.213-.44.5-.453.383-.017.591.327.445.751-.409,1.183-.825,2.364-1.239,3.546-.12.342-.243.683-.36,1.026a.5.5,0,0,1-.5.4.507.507,0,0,1-.492-.411q-.526-1.544-1.054-3.086c-.02-.059-.051-.114-.1-.225" transform="translate(-228.746 -121.685)" fill="#fff"/>
        <path id="Trazado_248" data-name="Trazado 248" d="M102.1,29.011a.918.918,0,1,1,.907-.935.933.933,0,0,1-.907.935" transform="translate(-92.246 -24.778)" fill="#fff"/>
        <path id="Trazado_249" data-name="Trazado 249" d="M71.066,28.082a.911.911,0,1,1-.9-.908.918.918,0,0,1,.9.908" transform="translate(-63.135 -24.776)" fill="#fff"/>
        <path id="Trazado_250" data-name="Trazado 250" d="M37.314,28.1a.908.908,0,1,1,.892.918.913.913,0,0,1-.892-.918" transform="translate(-34.022 -24.781)" fill="#fff"/>
      </g>
    </g>
  </g>
</svg>
